<svg width="69" height="9" viewBox="0 0 69 9" fill="none" xmlns="http://www.w3.org/2000/svg">
<path d="M4.512 3.876H3.876V3.228H1.932V3.876H1.284V6.456H1.932V7.104H3.876V6.456H4.512V3.876ZM0.636 7.104H0V3.228H0.636V2.58H1.284V1.944H3.876V2.58H4.512V0H5.808V8.4H4.512V7.752H3.876V8.4H1.284V7.752H0.636V7.104Z" fill="white"/>
<path d="M7.10503 7.104H6.45703V3.228H7.10503V2.58H7.74103V1.944H10.333V2.58H10.981V3.228H11.629V5.82H7.75303V6.456H8.38903V7.104H9.68503V6.456H11.629V7.104H10.981V7.752H10.333V8.4H7.74103V7.752H7.10503V7.104ZM10.333 4.524V3.864H9.68503V3.216H8.38903V3.864H7.75303V4.524H10.333Z" fill="white"/>
<path d="M12.9292 3.228H12.2812V1.944H13.5773V3.228H14.2133V4.524H14.8612V5.82H16.1572V4.524H16.8053V3.228H17.4533V1.944H18.7372V3.228H18.1012V4.524H17.4533V5.82H16.8053V7.104H16.1572V8.4H14.8612V7.104H14.2133V5.82H13.5653V4.524H12.9292V3.228Z" fill="white"/>
<path d="M21.3268 0H24.5668V0.648H25.2148V7.104H25.8628V8.4H24.5668V7.752H23.9188V1.296H21.9748V1.944H23.2708V3.24H21.9748V8.4H20.6788V3.24H19.3828V1.944H20.6788V0.648H21.3268V0Z" fill="white"/>
<path d="M27.1558 7.104H26.5078V3.228H27.1558V2.58H27.8038V1.944H30.3958V2.58H31.0438V3.228H31.6918V7.104H31.0438V7.752H30.3958V8.4H27.8038V7.752H27.1558V7.104ZM27.8038 6.456H28.4518V7.104H29.7478V6.456H30.3958V3.864H29.7478V3.216H28.4518V3.864H27.8038V6.456Z" fill="white"/>
<path d="M32.9917 3.876H32.3438V1.944H33.6398V3.876H34.2878V5.172H35.5718V3.876H36.2197V1.944H37.5158V3.876H38.1637V5.172H39.4478V3.876H40.0957V1.944H41.3918V3.876H40.7438V5.172H40.0957V7.104H39.4478V8.4H38.1517V7.104H37.5158V5.172H36.2197V7.104H35.5718V8.4H34.2757V7.104H33.6398V5.172H32.9917V3.876Z" fill="white"/>
<path d="M42.6832 7.104H42.0472V5.808H43.3312V6.456H43.9792V7.104H45.9232V6.456H45.2752V5.82H43.9792V5.172H42.6832V4.524H42.0352V3.228H42.6832V2.58H43.3312V1.944H45.9232V2.58H46.5712V3.228H47.2072V4.512H45.9232V3.864H45.2752V3.216H43.3312V3.876H43.9792V4.524H45.2752V5.172H46.5712V5.82H47.2072V7.104H46.5712V7.752H45.9232V8.4H43.3312V7.752H42.6832V7.104Z" fill="white"/>
<path d="M49.1554 3.876H47.8594V2.58H48.5074V1.944H49.1554V0.648H50.4514V1.944H49.8034V2.58H52.3954V3.876H50.4514V7.104H51.0994V6.456H52.3954V7.752H51.7474V8.4H49.8034V7.752H49.1554V3.876Z" fill="white"/>
<path d="M55.6191 5.172V5.82H54.9711V6.468H54.3231V7.104H55.6191V6.456H56.2671V5.172H55.6191ZM53.6871 7.752H53.0391V5.82H53.6871V5.172H54.3231V4.524H55.6191V3.876H56.2671V3.228H54.3351V3.876H53.0391V2.58H53.6871V1.944H56.9151V2.58H57.5631V7.104H58.2111V8.4H56.9151V7.752H55.6191V8.4H53.6871V7.752Z" fill="white"/>
<path d="M59.5265 3.876H58.2305V2.58H58.8785V1.944H59.5265V0.648H60.8225V1.944H60.1745V2.58H62.7665V3.876H60.8225V7.104H61.4705V6.456H62.7665V7.752H62.1185V8.4H60.1745V7.752H59.5265V3.876Z" fill="white"/>
<path d="M64.0582 7.104H63.4102V3.228H64.0582V2.58H64.6942V1.944H67.2862V2.58H67.9342V3.228H68.5822V5.82H64.7062V6.456H65.3422V7.104H66.6382V6.456H68.5822V7.104H67.9342V7.752H67.2862V8.4H64.6942V7.752H64.0582V7.104ZM67.2862 4.524V3.864H66.6382V3.216H65.3422V3.864H64.7062V4.524H67.2862Z" fill="white"/>
</svg>
