<svg width="67" height="7" viewBox="0 0 67 7" fill="none" xmlns="http://www.w3.org/2000/svg">
<path d="M0 2.28L0.468 1.86H3.444L3.948 2.256V0.252L4.14 0H4.572V6.636H4.08L3.96 6.228L3.444 6.636H0.468L0 6.216V2.28ZM0.624 2.436V6.072H3.348L3.948 5.592V2.892L3.36 2.436H0.624Z" fill="white"/>
<path d="M10.466 4.164L9.99797 4.548H6.51797V5.352L7.24997 6.084H10.202V6.636H6.98597L5.91797 5.616V2.268L6.38597 1.86H9.99797L10.466 2.268V4.164ZM9.84197 4.056V2.412H6.54197V4.056H9.84197Z" fill="white"/>
<path d="M13.4445 6.636L11.6925 2.616V1.86H12.3165V2.592L13.7925 6.036H14.1885L15.6165 2.592V1.86H16.2405V2.616L14.5485 6.636H13.4445Z" fill="white"/>
<path d="M18.7329 1.86H20.8329V2.412H18.7329V6.636H18.1209V2.412H17.4609V1.86H18.1209V0.408L18.5889 0H20.8329V0.552H18.7329V1.86Z" fill="white"/>
<path d="M22.7959 6.084H24.8239V6.636H22.6399L22.1719 6.228V0H22.5919L22.7959 0.252V6.084Z" fill="white"/>
<path d="M26.5422 6.636L26.0742 6.228V2.268L26.5422 1.86H30.1542L30.6222 2.268V6.228L30.1542 6.636H26.5422ZM26.6982 2.412V6.084H29.9982V2.412H26.6982Z" fill="white"/>
<path d="M31.8487 1.86H32.4728V2.592L33.9487 6.036H34.1647L35.6048 2.592V1.86H36.2287V2.592L37.7048 6.036H37.9328L39.3608 2.592V1.86H39.9847V2.616L38.2928 6.636H37.3568L35.9168 3.348L34.5247 6.636H33.6007L31.8487 2.616V1.86Z" fill="white"/>
<path d="M41.2031 6.084L45.1271 6.072V4.872L41.2391 4.068V2.268L41.6951 1.86H45.7511V2.412H41.8631V3.684L45.7511 4.488V6.228L45.2951 6.636H41.2031V6.084Z" fill="white"/>
<path d="M48.3817 1.86H50.3857V2.412H48.3817V6.084H50.3857V6.636H48.2257L47.7577 6.228V2.412H47.0977V1.86H47.7577V0.648H48.1897L48.3817 0.888V1.86Z" fill="white"/>
<path d="M52.1826 6.636L51.7266 6.216V4.26L52.1826 3.84H55.6626V2.412H51.9426V1.86H55.8186L56.2866 2.268V6.636H55.7706L55.6626 6.192V6.144L54.9546 6.636H52.1826ZM52.3386 4.344V6.072H54.8826L55.6626 5.52V4.344H52.3386Z" fill="white"/>
<path d="M58.7176 1.86H60.7216V2.412H58.7176V6.084H60.7216V6.636H58.5616L58.0936 6.228V2.412H57.4336V1.86H58.0936V0.648H58.5256L58.7176 0.888V1.86Z" fill="white"/>
<path d="M66.4113 4.164L65.9433 4.548H62.4633V5.352L63.1953 6.084H66.1473V6.636H62.9313L61.8633 5.616V2.268L62.3313 1.86H65.9433L66.4113 2.268V4.164ZM65.7873 4.056V2.412H62.4873V4.056H65.7873Z" fill="white"/>
</svg>
